<mxfile host="app.diagrams.net" modified="2023-05-21T22:02:24.951Z" agent="Mozilla/5.0 (X11; Linux x86_64) AppleWebKit/537.36 (KHTML, like Gecko) Chrome/111.0.0.0 Safari/537.36" etag="svvzgwWJgy0bdKQZDP6n" version="21.3.2" type="device">
  <diagram id="Um7idM1XhnPcWQUyJz3g" name="Page-1">
    <mxGraphModel dx="2116" dy="670" grid="1" gridSize="10" guides="1" tooltips="1" connect="1" arrows="1" fold="1" page="1" pageScale="1" pageWidth="850" pageHeight="1100" math="0" shadow="0">
      <root>
        <mxCell id="0" />
        <mxCell id="1" parent="0" />
        <mxCell id="FzFozQ8pbkiuX8usW2jT-35" value="" style="rounded=1;whiteSpace=wrap;html=1;strokeColor=#0066CC;fontSize=18;arcSize=7;" parent="1" vertex="1">
          <mxGeometry x="-69" y="230" width="365" height="420" as="geometry" />
        </mxCell>
        <mxCell id="FzFozQ8pbkiuX8usW2jT-1" value="&lt;font style=&quot;font-size: 18px;&quot;&gt;AXI-LITE-S&lt;br&gt;&lt;/font&gt;" style="rounded=0;whiteSpace=wrap;html=1;strokeColor=#0066CC;" parent="1" vertex="1">
          <mxGeometry x="164" y="240" width="120" height="400" as="geometry" />
        </mxCell>
        <mxCell id="FzFozQ8pbkiuX8usW2jT-20" value="" style="endArrow=classic;html=1;rounded=0;strokeWidth=6;strokeColor=#0066CC;" parent="1" edge="1">
          <mxGeometry relative="1" as="geometry">
            <mxPoint x="64" y="311" as="sourcePoint" />
            <mxPoint x="164" y="311" as="targetPoint" />
          </mxGeometry>
        </mxCell>
        <mxCell id="FzFozQ8pbkiuX8usW2jT-21" value="&amp;nbsp;AWADDR&amp;nbsp;" style="edgeLabel;resizable=0;html=1;align=center;verticalAlign=middle;strokeColor=#0066CC;" parent="FzFozQ8pbkiuX8usW2jT-20" connectable="0" vertex="1">
          <mxGeometry relative="1" as="geometry" />
        </mxCell>
        <mxCell id="YU5_GZ8aUwFnw-8ss64A-9" value="" style="endArrow=classic;html=1;rounded=0;strokeColor=#0066CC;" edge="1" parent="1">
          <mxGeometry relative="1" as="geometry">
            <mxPoint x="64" y="324" as="sourcePoint" />
            <mxPoint x="164" y="324" as="targetPoint" />
          </mxGeometry>
        </mxCell>
        <mxCell id="YU5_GZ8aUwFnw-8ss64A-10" value="&amp;nbsp;AWPROT&amp;nbsp;" style="edgeLabel;resizable=0;html=1;align=center;verticalAlign=middle;strokeColor=#0066CC;" connectable="0" vertex="1" parent="YU5_GZ8aUwFnw-8ss64A-9">
          <mxGeometry relative="1" as="geometry" />
        </mxCell>
        <mxCell id="YU5_GZ8aUwFnw-8ss64A-11" value="&lt;font style=&quot;font-size: 18px;&quot;&gt;AXI-LITE-M&lt;br&gt;&lt;/font&gt;" style="rounded=0;whiteSpace=wrap;html=1;strokeColor=#0066CC;" vertex="1" parent="1">
          <mxGeometry x="-56" y="240" width="120" height="400" as="geometry" />
        </mxCell>
        <mxCell id="YU5_GZ8aUwFnw-8ss64A-106" value="" style="endArrow=classic;html=1;rounded=0;strokeColor=#0066CC;" edge="1" parent="1">
          <mxGeometry relative="1" as="geometry">
            <mxPoint x="64" y="336" as="sourcePoint" />
            <mxPoint x="164" y="336" as="targetPoint" />
          </mxGeometry>
        </mxCell>
        <mxCell id="YU5_GZ8aUwFnw-8ss64A-107" value="&amp;nbsp;AWVALID&amp;nbsp;" style="edgeLabel;resizable=0;html=1;align=center;verticalAlign=middle;strokeColor=#0066CC;" connectable="0" vertex="1" parent="YU5_GZ8aUwFnw-8ss64A-106">
          <mxGeometry relative="1" as="geometry" />
        </mxCell>
        <mxCell id="YU5_GZ8aUwFnw-8ss64A-110" value="" style="endArrow=none;html=1;rounded=0;strokeColor=#0066CC;startArrow=classic;startFill=1;endFill=0;" edge="1" parent="1">
          <mxGeometry relative="1" as="geometry">
            <mxPoint x="64" y="348" as="sourcePoint" />
            <mxPoint x="164" y="348" as="targetPoint" />
          </mxGeometry>
        </mxCell>
        <mxCell id="YU5_GZ8aUwFnw-8ss64A-111" value="&amp;nbsp;AWREADY&amp;nbsp;" style="edgeLabel;resizable=0;html=1;align=center;verticalAlign=middle;strokeColor=#0066CC;" connectable="0" vertex="1" parent="YU5_GZ8aUwFnw-8ss64A-110">
          <mxGeometry relative="1" as="geometry" />
        </mxCell>
        <mxCell id="YU5_GZ8aUwFnw-8ss64A-113" value="" style="endArrow=classic;html=1;rounded=0;strokeColor=#0066CC;startArrow=classic;startFill=1;" edge="1" parent="1">
          <mxGeometry relative="1" as="geometry">
            <mxPoint x="64" y="250" as="sourcePoint" />
            <mxPoint x="164" y="250" as="targetPoint" />
          </mxGeometry>
        </mxCell>
        <mxCell id="YU5_GZ8aUwFnw-8ss64A-114" value="&amp;nbsp;ACLK&amp;nbsp;" style="edgeLabel;resizable=0;html=1;align=center;verticalAlign=middle;strokeColor=#0066CC;" connectable="0" vertex="1" parent="YU5_GZ8aUwFnw-8ss64A-113">
          <mxGeometry relative="1" as="geometry" />
        </mxCell>
        <mxCell id="YU5_GZ8aUwFnw-8ss64A-115" value="" style="endArrow=classic;html=1;rounded=0;strokeColor=#0066CC;startArrow=classic;startFill=1;" edge="1" parent="1">
          <mxGeometry relative="1" as="geometry">
            <mxPoint x="64" y="260" as="sourcePoint" />
            <mxPoint x="164" y="260" as="targetPoint" />
          </mxGeometry>
        </mxCell>
        <mxCell id="YU5_GZ8aUwFnw-8ss64A-116" value="&amp;nbsp;ARESETn&amp;nbsp;" style="edgeLabel;resizable=0;html=1;align=center;verticalAlign=middle;strokeColor=#0066CC;" connectable="0" vertex="1" parent="YU5_GZ8aUwFnw-8ss64A-115">
          <mxGeometry relative="1" as="geometry" />
        </mxCell>
        <mxCell id="YU5_GZ8aUwFnw-8ss64A-118" value="" style="endArrow=classic;html=1;rounded=0;strokeColor=#0066CC;" edge="1" parent="1">
          <mxGeometry relative="1" as="geometry">
            <mxPoint x="64" y="393" as="sourcePoint" />
            <mxPoint x="164" y="393" as="targetPoint" />
          </mxGeometry>
        </mxCell>
        <mxCell id="YU5_GZ8aUwFnw-8ss64A-119" value="&amp;nbsp;WSTRB&amp;nbsp;" style="edgeLabel;resizable=0;html=1;align=center;verticalAlign=middle;strokeColor=#0066CC;" connectable="0" vertex="1" parent="YU5_GZ8aUwFnw-8ss64A-118">
          <mxGeometry relative="1" as="geometry" />
        </mxCell>
        <mxCell id="YU5_GZ8aUwFnw-8ss64A-122" value="" style="endArrow=classic;html=1;rounded=0;strokeWidth=6;strokeColor=#0066CC;" edge="1" parent="1">
          <mxGeometry relative="1" as="geometry">
            <mxPoint x="64" y="378" as="sourcePoint" />
            <mxPoint x="164" y="378" as="targetPoint" />
          </mxGeometry>
        </mxCell>
        <mxCell id="YU5_GZ8aUwFnw-8ss64A-123" value="&amp;nbsp;WDATA&amp;nbsp;" style="edgeLabel;resizable=0;html=1;align=center;verticalAlign=middle;strokeColor=#0066CC;" connectable="0" vertex="1" parent="YU5_GZ8aUwFnw-8ss64A-122">
          <mxGeometry relative="1" as="geometry" />
        </mxCell>
        <mxCell id="YU5_GZ8aUwFnw-8ss64A-138" value="" style="endArrow=classic;html=1;rounded=0;strokeColor=#0066CC;" edge="1" parent="1">
          <mxGeometry relative="1" as="geometry">
            <mxPoint x="64" y="405" as="sourcePoint" />
            <mxPoint x="164" y="405" as="targetPoint" />
          </mxGeometry>
        </mxCell>
        <mxCell id="YU5_GZ8aUwFnw-8ss64A-139" value="&amp;nbsp;WVALID&amp;nbsp;" style="edgeLabel;resizable=0;html=1;align=center;verticalAlign=middle;strokeColor=#0066CC;" connectable="0" vertex="1" parent="YU5_GZ8aUwFnw-8ss64A-138">
          <mxGeometry relative="1" as="geometry" />
        </mxCell>
        <mxCell id="YU5_GZ8aUwFnw-8ss64A-142" value="" style="endArrow=none;html=1;rounded=0;strokeColor=#0066CC;startArrow=classic;startFill=1;endFill=0;" edge="1" parent="1">
          <mxGeometry relative="1" as="geometry">
            <mxPoint x="64" y="417" as="sourcePoint" />
            <mxPoint x="164" y="417" as="targetPoint" />
          </mxGeometry>
        </mxCell>
        <mxCell id="YU5_GZ8aUwFnw-8ss64A-143" value="&amp;nbsp;WREADY&amp;nbsp;" style="edgeLabel;resizable=0;html=1;align=center;verticalAlign=middle;strokeColor=#0066CC;" connectable="0" vertex="1" parent="YU5_GZ8aUwFnw-8ss64A-142">
          <mxGeometry relative="1" as="geometry" />
        </mxCell>
        <mxCell id="YU5_GZ8aUwFnw-8ss64A-150" value="" style="endArrow=none;html=1;rounded=0;strokeColor=#0066CC;startArrow=classic;startFill=1;endFill=0;" edge="1" parent="1">
          <mxGeometry relative="1" as="geometry">
            <mxPoint x="64" y="447" as="sourcePoint" />
            <mxPoint x="164" y="447" as="targetPoint" />
          </mxGeometry>
        </mxCell>
        <mxCell id="YU5_GZ8aUwFnw-8ss64A-151" value="&amp;nbsp;BRESP&amp;nbsp;" style="edgeLabel;resizable=0;html=1;align=center;verticalAlign=middle;strokeColor=#0066CC;" connectable="0" vertex="1" parent="YU5_GZ8aUwFnw-8ss64A-150">
          <mxGeometry relative="1" as="geometry" />
        </mxCell>
        <mxCell id="YU5_GZ8aUwFnw-8ss64A-152" value="" style="endArrow=none;html=1;rounded=0;strokeColor=#0066CC;startArrow=classic;startFill=1;endFill=0;" edge="1" parent="1">
          <mxGeometry relative="1" as="geometry">
            <mxPoint x="64" y="459" as="sourcePoint" />
            <mxPoint x="164" y="459" as="targetPoint" />
          </mxGeometry>
        </mxCell>
        <mxCell id="YU5_GZ8aUwFnw-8ss64A-153" value="&amp;nbsp;BVALID&amp;nbsp;" style="edgeLabel;resizable=0;html=1;align=center;verticalAlign=middle;strokeColor=#0066CC;" connectable="0" vertex="1" parent="YU5_GZ8aUwFnw-8ss64A-152">
          <mxGeometry relative="1" as="geometry" />
        </mxCell>
        <mxCell id="YU5_GZ8aUwFnw-8ss64A-156" value="" style="endArrow=classic;html=1;rounded=0;strokeColor=#0066CC;startArrow=none;startFill=0;endFill=1;" edge="1" parent="1">
          <mxGeometry relative="1" as="geometry">
            <mxPoint x="64" y="471" as="sourcePoint" />
            <mxPoint x="164" y="471" as="targetPoint" />
          </mxGeometry>
        </mxCell>
        <mxCell id="YU5_GZ8aUwFnw-8ss64A-157" value="&amp;nbsp;BREADY&amp;nbsp;" style="edgeLabel;resizable=0;html=1;align=center;verticalAlign=middle;strokeColor=#0066CC;" connectable="0" vertex="1" parent="YU5_GZ8aUwFnw-8ss64A-156">
          <mxGeometry relative="1" as="geometry" />
        </mxCell>
        <mxCell id="YU5_GZ8aUwFnw-8ss64A-164" value="" style="endArrow=classic;html=1;rounded=0;strokeWidth=6;strokeColor=#0066CC;" edge="1" parent="1">
          <mxGeometry relative="1" as="geometry">
            <mxPoint x="64" y="521" as="sourcePoint" />
            <mxPoint x="164" y="521" as="targetPoint" />
          </mxGeometry>
        </mxCell>
        <mxCell id="YU5_GZ8aUwFnw-8ss64A-165" value="&amp;nbsp;ARADDR&amp;nbsp;" style="edgeLabel;resizable=0;html=1;align=center;verticalAlign=middle;strokeColor=#0066CC;" connectable="0" vertex="1" parent="YU5_GZ8aUwFnw-8ss64A-164">
          <mxGeometry relative="1" as="geometry" />
        </mxCell>
        <mxCell id="YU5_GZ8aUwFnw-8ss64A-174" value="" style="endArrow=classic;html=1;rounded=0;strokeColor=#0066CC;" edge="1" parent="1">
          <mxGeometry relative="1" as="geometry">
            <mxPoint x="64" y="535" as="sourcePoint" />
            <mxPoint x="164" y="535" as="targetPoint" />
          </mxGeometry>
        </mxCell>
        <mxCell id="YU5_GZ8aUwFnw-8ss64A-175" value="&amp;nbsp;ARPROT&amp;nbsp;" style="edgeLabel;resizable=0;html=1;align=center;verticalAlign=middle;strokeColor=#0066CC;" connectable="0" vertex="1" parent="YU5_GZ8aUwFnw-8ss64A-174">
          <mxGeometry relative="1" as="geometry" />
        </mxCell>
        <mxCell id="YU5_GZ8aUwFnw-8ss64A-181" value="" style="endArrow=classic;html=1;rounded=0;strokeColor=#0066CC;" edge="1" parent="1">
          <mxGeometry relative="1" as="geometry">
            <mxPoint x="64" y="547" as="sourcePoint" />
            <mxPoint x="164" y="547" as="targetPoint" />
          </mxGeometry>
        </mxCell>
        <mxCell id="YU5_GZ8aUwFnw-8ss64A-182" value="&amp;nbsp;ARVALID&amp;nbsp;" style="edgeLabel;resizable=0;html=1;align=center;verticalAlign=middle;strokeColor=#0066CC;" connectable="0" vertex="1" parent="YU5_GZ8aUwFnw-8ss64A-181">
          <mxGeometry relative="1" as="geometry" />
        </mxCell>
        <mxCell id="YU5_GZ8aUwFnw-8ss64A-185" value="" style="endArrow=none;html=1;rounded=0;strokeColor=#0066CC;startArrow=classic;startFill=1;endFill=0;" edge="1" parent="1">
          <mxGeometry relative="1" as="geometry">
            <mxPoint x="64" y="559" as="sourcePoint" />
            <mxPoint x="164" y="559" as="targetPoint" />
          </mxGeometry>
        </mxCell>
        <mxCell id="YU5_GZ8aUwFnw-8ss64A-186" value="&amp;nbsp;ARREADY&amp;nbsp;" style="edgeLabel;resizable=0;html=1;align=center;verticalAlign=middle;strokeColor=#0066CC;" connectable="0" vertex="1" parent="YU5_GZ8aUwFnw-8ss64A-185">
          <mxGeometry relative="1" as="geometry" />
        </mxCell>
        <mxCell id="YU5_GZ8aUwFnw-8ss64A-191" value="" style="endArrow=none;html=1;rounded=0;strokeWidth=6;strokeColor=#0066CC;startArrow=classic;startFill=1;endFill=0;" edge="1" parent="1">
          <mxGeometry relative="1" as="geometry">
            <mxPoint x="64" y="589" as="sourcePoint" />
            <mxPoint x="164" y="589" as="targetPoint" />
          </mxGeometry>
        </mxCell>
        <mxCell id="YU5_GZ8aUwFnw-8ss64A-192" value="&amp;nbsp;RDATA&amp;nbsp;" style="edgeLabel;resizable=0;html=1;align=center;verticalAlign=middle;strokeColor=#0066CC;" connectable="0" vertex="1" parent="YU5_GZ8aUwFnw-8ss64A-191">
          <mxGeometry relative="1" as="geometry" />
        </mxCell>
        <mxCell id="YU5_GZ8aUwFnw-8ss64A-205" value="" style="endArrow=none;html=1;rounded=0;strokeColor=#0066CC;startArrow=classic;startFill=1;endFill=0;" edge="1" parent="1">
          <mxGeometry relative="1" as="geometry">
            <mxPoint x="64" y="616" as="sourcePoint" />
            <mxPoint x="164" y="616" as="targetPoint" />
          </mxGeometry>
        </mxCell>
        <mxCell id="YU5_GZ8aUwFnw-8ss64A-206" value="&amp;nbsp;RVALID&amp;nbsp;" style="edgeLabel;resizable=0;html=1;align=center;verticalAlign=middle;strokeColor=#0066CC;" connectable="0" vertex="1" parent="YU5_GZ8aUwFnw-8ss64A-205">
          <mxGeometry relative="1" as="geometry" />
        </mxCell>
        <mxCell id="YU5_GZ8aUwFnw-8ss64A-209" value="" style="endArrow=classic;html=1;rounded=0;strokeColor=#0066CC;startArrow=none;startFill=0;endFill=1;" edge="1" parent="1">
          <mxGeometry relative="1" as="geometry">
            <mxPoint x="64" y="628" as="sourcePoint" />
            <mxPoint x="164" y="628" as="targetPoint" />
          </mxGeometry>
        </mxCell>
        <mxCell id="YU5_GZ8aUwFnw-8ss64A-210" value="&amp;nbsp;RREADY&amp;nbsp;" style="edgeLabel;resizable=0;html=1;align=center;verticalAlign=middle;strokeColor=#0066CC;" connectable="0" vertex="1" parent="YU5_GZ8aUwFnw-8ss64A-209">
          <mxGeometry relative="1" as="geometry" />
        </mxCell>
        <mxCell id="YU5_GZ8aUwFnw-8ss64A-211" value="" style="endArrow=none;html=1;rounded=0;strokeColor=#0066CC;startArrow=classic;startFill=1;endFill=0;" edge="1" parent="1">
          <mxGeometry relative="1" as="geometry">
            <mxPoint x="64" y="604" as="sourcePoint" />
            <mxPoint x="164" y="604" as="targetPoint" />
          </mxGeometry>
        </mxCell>
        <mxCell id="YU5_GZ8aUwFnw-8ss64A-212" value="&amp;nbsp;RRESP&amp;nbsp;" style="edgeLabel;resizable=0;html=1;align=center;verticalAlign=middle;strokeColor=#0066CC;" connectable="0" vertex="1" parent="YU5_GZ8aUwFnw-8ss64A-211">
          <mxGeometry relative="1" as="geometry" />
        </mxCell>
      </root>
    </mxGraphModel>
  </diagram>
</mxfile>
